<svg width="24.000000" height="24.000000" viewBox="0 0 24 24" fill="none" xmlns="http://www.w3.org/2000/svg" xmlns:xlink="http://www.w3.org/1999/xlink">
	<desc>
			Created with Pixso.
	</desc>
	<defs/>
	<path id="Union" d="M3 7.5C3.82 7.5 4.5 6.82 4.5 6C4.5 5.17 3.82 4.5 3 4.5C2.17 4.5 1.5 5.17 1.5 6C1.5 6.82 2.17 7.5 3 7.5ZM6.5 5.25L21.5 5.25L21.5 6.75L6.5 6.75L6.5 5.25ZM21.5 11.25L6.5 11.25L6.5 12.75L21.5 12.75L21.5 11.25ZM21.5 17.25L6.5 17.25L6.5 18.75L21.5 18.75L21.5 17.25ZM4.5 12C4.5 12.82 3.82 13.5 3 13.5C2.17 13.5 1.5 12.82 1.5 12C1.5 11.17 2.17 10.5 3 10.5C3.82 10.5 4.5 11.17 4.5 12ZM3 19.5C3.82 19.5 4.5 18.82 4.5 18C4.5 17.17 3.82 16.5 3 16.5C2.17 16.5 1.5 17.17 1.5 18C1.5 18.82 2.17 19.5 3 19.5Z" fill="#E8E9EA" fill-opacity="1.000000" fill-rule="evenodd"/>
</svg>
