<svg width="24.000000" height="24.000000" viewBox="0 0 24 24" fill="none" xmlns="http://www.w3.org/2000/svg" xmlns:xlink="http://www.w3.org/1999/xlink">
	<desc>
			Created with Pixso.
	</desc>
	<defs/>
	<path id="Union" d="M17.99 10.98L17.01 11.34L17.01 12.38L17.01 18C17.01 18.82 16.34 19.5 15.51 19.5L14.5 19.5L14.5 19.5L14.5 14C14.5 12.89 13.6 12 12.5 12L10.5 12C9.39 12 8.5 12.89 8.5 14L8.5 19.5L8.5 19.5L7.49 19.5C6.66 19.5 5.99 18.82 5.99 18L5.99 12.38L5.99 11.34L5.01 10.98L3.54 10.43L11.5 4.61L19.45 10.43L17.99 10.98ZM20.84 11.52L18.51 12.38L18.51 18C18.51 19.65 17.17 21 15.51 21L7.49 21C5.83 21 4.49 19.65 4.49 18L4.49 12.38L2.15 11.52C1.4 11.24 1.26 10.24 1.91 9.77L10.91 3.19C11.26 2.93 11.74 2.93 12.09 3.19L21.08 9.77C21.73 10.24 21.59 11.24 20.84 11.52ZM10.5 13.5L12.5 13.5C12.77 13.5 13 13.72 13 14L13 19.5L10 19.5L10 14C10 13.72 10.22 13.5 10.5 13.5Z" fill="#E8E9EA" fill-opacity="1.000000" fill-rule="evenodd"/>
</svg>
