<?xml version="1.0" standalone="no"?>
<!DOCTYPE svg PUBLIC "-//W3C//DTD SVG 20010904//EN"
 "http://www.w3.org/TR/2001/REC-SVG-20010904/DTD/svg10.dtd">
<svg version="1.0" xmlns="http://www.w3.org/2000/svg"
 width="583.000000pt" height="190.000000pt" viewBox="0 0 583.000000 190.000000"
 preserveAspectRatio="xMidYMid meet">

<g transform="translate(0.000000,190.000000) scale(0.100000,-0.100000)"
fill="#fff" stroke="none">
<path d="M1215 1466 c-45 -19 -83 -69 -131 -172 l-43 -92 -58 -6 c-105 -12
-157 -27 -258 -76 -158 -77 -274 -189 -348 -338 -66 -133 -65 -242 2 -312 34
-36 43 -40 87 -40 31 0 61 7 81 20 71 43 68 100 -8 155 -51 36 -79 83 -79 127
1 66 100 193 188 241 74 40 138 51 234 38 45 -6 83 -13 85 -15 2 -2 -3 -21
-12 -42 -9 -22 -41 -124 -72 -229 -48 -163 -57 -205 -61 -293 -4 -95 -2 -106
22 -156 21 -43 36 -59 70 -75 51 -25 67 -26 133 -6 59 17 125 66 268 194 55
49 101 88 103 87 1 -2 -9 -47 -23 -101 -31 -121 -31 -140 1 -172 22 -22 31
-24 67 -19 69 11 127 45 143 82 8 18 25 84 38 146 13 62 34 135 46 161 43 91
226 230 271 206 11 -5 19 -16 19 -24 0 -8 -22 -75 -49 -147 -60 -166 -75 -226
-68 -291 4 -42 10 -56 41 -84 32 -29 42 -33 92 -33 70 0 142 36 243 121 77 65
201 203 234 260 17 30 31 40 77 53 30 10 61 19 67 22 7 3 -5 -25 -27 -62 -83
-142 -104 -274 -55 -347 30 -43 54 -51 133 -45 56 4 148 41 243 98 l36 22 54
-54 c57 -57 105 -78 175 -78 59 0 147 24 195 52 46 27 159 139 159 157 0 6 4
11 8 11 4 0 13 -25 20 -56 20 -99 80 -154 167 -154 82 0 145 41 246 162 l47
56 7 -56 c15 -117 50 -162 126 -162 60 0 110 28 211 115 l88 75 6 -28 c11 -47
53 -111 92 -137 96 -65 245 1 359 160 l21 30 7 -50 c17 -117 56 -165 134 -165
64 0 124 39 181 118 57 79 112 109 165 92 19 -6 48 -29 66 -51 17 -21 37 -39
44 -39 18 0 73 65 81 96 10 37 -10 71 -55 94 -51 25 -82 25 -167 -1 -60 -18
-77 -30 -130 -85 -34 -35 -69 -64 -78 -64 -63 0 -42 180 79 680 27 107 59 224
72 260 40 106 10 170 -82 170 -53 0 -87 -29 -120 -103 -20 -45 -70 -244 -105
-420 l-11 -57 -32 22 c-48 35 -151 31 -232 -7 -101 -48 -179 -138 -264 -303
-57 -110 -83 -151 -126 -191 -62 -59 -95 -66 -121 -26 -12 19 -15 37 -10 74
11 81 45 200 92 318 60 154 58 183 -16 183 -41 0 -105 -38 -140 -83 l-23 -28
-28 35 c-16 19 -46 40 -66 47 -52 17 -144 6 -207 -25 -109 -53 -153 -102 -254
-281 -61 -109 -177 -236 -244 -268 -42 -20 -103 -22 -137 -4 -29 14 -65 71
-58 91 3 7 56 48 119 89 62 42 132 92 156 112 105 90 109 215 10 266 -58 30
-169 26 -236 -7 -106 -53 -217 -183 -246 -288 -20 -70 -29 -146 -18 -146 5 0
50 23 100 51 87 49 92 53 92 84 0 48 34 151 65 195 48 70 116 84 145 30 48
-89 -78 -216 -375 -377 -139 -75 -169 -87 -199 -79 -34 8 -50 59 -37 117 17
72 66 210 98 274 47 93 66 155 52 171 -23 28 -57 16 -106 -38 -86 -94 -141
-146 -173 -163 -18 -9 -34 -15 -36 -12 -2 2 3 23 11 47 8 23 15 64 15 91 0 41
-4 51 -25 65 -59 39 -155 -23 -189 -122 -26 -77 -22 -111 19 -150 l35 -32 -42
-54 c-64 -82 -203 -216 -232 -224 -34 -8 -56 10 -56 46 0 16 25 100 56 187 47
132 57 170 58 230 1 63 -2 74 -23 97 -20 22 -33 26 -78 26 -44 0 -70 -8 -145
-46 l-91 -46 37 49 c169 222 206 291 214 394 5 79 -8 108 -60 135 -72 37 -212
-6 -282 -88 -68 -79 -164 -285 -251 -538 -24 -69 -47 -134 -51 -145 -8 -22 80
54 212 182 72 69 84 85 99 137 30 106 126 280 184 334 50 46 85 11 61 -62 -37
-112 -248 -363 -463 -549 -148 -128 -351 -293 -392 -318 -41 -26 -97 -25 -121
2 -34 38 -24 120 46 349 34 113 65 209 69 213 4 4 21 3 37 -3 16 -6 65 -14
110 -17 73 -5 86 -3 123 17 71 41 106 155 61 200 -23 23 -38 24 -89 9 -29 -9
-48 -7 -94 6 -31 9 -57 18 -57 19 0 2 18 41 39 87 54 114 68 170 53 203 -10
23 -18 26 -59 26 -27 -1 -62 -7 -78 -14z m2810 -602 c61 -24 57 -169 -10 -320
-52 -119 -117 -184 -182 -184 -72 0 -94 99 -52 236 58 187 160 300 244 268z
m929 -27 c79 -106 -77 -477 -201 -477 -77 0 -102 79 -67 214 23 92 89 219 136
261 50 46 99 46 132 2z"/>
</g>
</svg>
