<svg width="24.000000" height="24.000000" viewBox="0 0 24 24" fill="none" xmlns="http://www.w3.org/2000/svg" xmlns:xlink="http://www.w3.org/1999/xlink">
	<desc>
			Created with Pixso.
	</desc>
	<defs/>
	<path id="Union" d="M17.5 13.5C16.67 13.5 16 12.82 16 12C16 11.17 16.67 10.5 17.5 10.5C18.32 10.5 19 11.17 19 12C19 12.82 18.32 13.5 17.5 13.5ZM11.5 13.5C10.67 13.5 10 12.82 10 12C10 11.17 10.67 10.5 11.5 10.5C12.32 10.5 13 11.17 13 12C13 12.82 12.32 13.5 11.5 13.5ZM4 12C4 12.82 4.67 13.5 5.5 13.5C6.32 13.5 7 12.82 7 12C7 11.17 6.32 10.5 5.5 10.5C4.67 10.5 4 11.17 4 12Z" fill="#E8E9EA" fill-opacity="1.000000" fill-rule="evenodd"/>
</svg>
